<mxfile host="app.diagrams.net" modified="2023-05-11T13:09:35.603Z" agent="Mozilla/5.0 (X11; Ubuntu; Linux x86_64; rv:109.0) Gecko/20100101 Firefox/113.0" version="21.2.9" etag="4f00arlmR3NMBsMWmGR_" type="github">
  <diagram name="Page-1" id="f45hIzcPYxb8AddQ-kAs">
    <mxGraphModel>
      <root>
        <mxCell id="0" />
        <mxCell id="1" parent="0" />
      </root>
    </mxGraphModel>
  </diagram>
</mxfile>
